<svg width="300" height="78" viewBox="0 0 300 78" fill="none" xmlns="http://www.w3.org/2000/svg">
<g clip-path="url(#clip0_6_16)">
<rect x="2" y="23" width="15" height="54" rx="7.5" fill="#29C763"/>
<rect x="48" y="23" width="15" height="54" rx="7.5" fill="#29C763"/>
<path d="M32.5 2C48.2649 2 61.2522 14.241 63 30H48.7891C46.9453 22.8435 40.4416 17.5557 32.7021 17.5557C24.9629 17.5558 18.46 22.8436 16.6162 30H2C3.7478 14.241 16.735 2 32.5 2Z" fill="#29C763"/>
<path d="M109 2C129.435 2 146 18.5655 146 39C146 59.4345 129.435 76 109 76C88.5655 76 72 59.4345 72 39C72 18.5655 88.5655 2 109 2ZM109 17C96.8497 17 87 26.8497 87 39C87 51.1503 96.8497 61 109 61C121.15 61 131 51.1503 131 39C131 26.8497 121.15 17 109 17Z" fill="#29C763"/>
<path d="M192 2C212.435 2 229 18.5655 229 39C229 59.4345 212.435 76 192 76C171.565 76 155 59.4345 155 39C155 18.5655 171.565 2 192 2ZM192 17C179.85 17 170 26.8497 170 39C170 51.1503 179.85 61 192 61C204.15 61 214 51.1503 214 39C214 26.8497 204.15 17 192 17Z" fill="#29C763"/>
<rect x="238" y="2" width="15" height="74" rx="7.5" fill="#29C763"/>
<path d="M292 20V9.5C292 5.35786 288.642 2 284.5 2C280.358 2 277 5.35786 277 9.5V21C277 26.5228 272.523 31 267 31H245.5C241.358 31 238 34.3579 238 38.5C238 42.6421 241.358 46 245.5 46H266C280.359 46 292 34.3594 292 20Z" fill="#29C763"/>
<path d="M272.5 31H249.5C245.358 31 242 34.3579 242 38.5C242 42.6421 245.358 46 249.5 46H272.665C278.123 46 282.573 50.3762 282.664 55.8334L282.88 68.8114C282.947 72.8008 286.2 76 290.19 76C294.227 76 297.5 72.727 297.5 68.6896V56C297.5 42.1929 286.307 31 272.5 31Z" fill="#29C763"/>
</g>
<defs>
<clipPath id="clip0_6_16">
<rect width="300" height="78" fill="white"/>
</clipPath>
</defs>
</svg>
